# xmcd CD database file
#
# Track frame offsets:
#	150
#	21828
#	39881
#	56710
#	71229
#	86322
#	98043
#	113967
#	126433
#	142265
#	156128
#	166701
#	184257
#	198372
#	213020
#	228329
#	244923
#	260678
#	274784
#	287740
#	304060
#	325460
#	342608
#
# Disc length: 4759 seconds
#
# Revision: 0
# Processed by: cddbd v1.5.2PL0 Copyright (c) Steve Scherf et al.
# Submitted via: CDex 1.51
#
DISCID=5b129517
DTITLE=Madeleine Peyroux - Dreamland and Careless Love
DYEAR=1900
DGENRE=Jazz
TTITLE0=01 - Walkin' after Midnight
TTITLE1=02 - Hey Sweet Man
TTITLE2=03 - I'm gonna sit right down
TTITLE3=04 - (getting some) fun out of life
TTITLE4=05 - La vie en rose
TTITLE5=07 - A prayer
TTITLE6=08 - Muddy water
TTITLE7=09 - Was I
TTITLE8=10 - Dreamland
TTITLE9=11 - Reckless blues
TTITLE10=12 - Lovesick blues
TTITLE11=Madeleine Peyroux - dance me to the end of love
TTITLE12=Madeleine Peyroux - don't wait too long
TTITLE13=Madeleine Peyroux - don't cry baby
TTITLE14=Madeleine Peyroux - you're gonna make me lonesome
TTITLE15=Madeleine Peyroux - between the bars
TTITLE16=Madeleine Peyroux - no more
TTITLE17=Madeleine Peyroux - lonesome road
TTITLE18=Madeleine Peyroux - j'ai deux amours
TTITLE19=Madeleine Peyroux - weary blues
TTITLE20=Madeleine Peyroux - i'll look around
TTITLE21=Madeleine Peyroux - careless love
TTITLE22=Madeleine Peyroux - this is heaven to me
EXTD=
EXTT0=
EXTT1=
EXTT2=
EXTT3=
EXTT4=
EXTT5=
EXTT6=
EXTT7=
EXTT8=
EXTT9=
EXTT10=
EXTT11=
EXTT12=
EXTT13=
EXTT14=
EXTT15=
EXTT16=
EXTT17=
EXTT18=
EXTT19=
EXTT20=
EXTT21=
EXTT22=
PLAYORDER=
